<svg width="50" height="50" viewBox="0 0 50 50" fill="none" xmlns="http://www.w3.org/2000/svg">
<circle cx="25" cy="25" r="25" fill="#FFF2EB"/>
<g clip-path="url(#clip0_50_5808)">
<path d="M36.9998 18.25V30.9906C36.9998 31.7635 36.7154 32.5062 36.1956 33.0844L32.6633 37H29.8581L34.6488 31.6896C34.8217 31.4969 34.9175 31.249 34.9175 30.9906V18.25C34.9175 17.676 34.4498 17.2083 33.8758 17.2083C33.3019 17.2083 32.8342 17.676 32.8342 18.25V26.5833H32.829C32.829 27.2958 32.5873 28.0094 32.104 28.5854L29.4186 31.3813L27.9175 29.9375L30.5561 27.1937C30.6915 27.0302 30.7561 26.8094 30.7519 26.5833C30.7331 26.3625 30.6467 26.0646 30.4873 25.8865C30.105 25.4604 29.4477 25.424 29.0227 25.8062L25.9936 28.5938C26.3748 29.1219 26.5852 29.7625 26.5852 30.4229V37H24.5019V30.4229C24.5019 30.1323 24.379 29.8531 24.1654 29.6573L19.9717 25.7979C19.5571 25.426 18.8988 25.4604 18.5165 25.8875C18.1748 26.2698 18.1654 26.8542 18.4946 27.2469L21.1717 30.0292L19.6706 31.4729L16.9456 28.6385C16.4373 28.0354 16.1852 27.3062 16.18 26.5844H16.1686V18.25C16.1686 17.676 15.7008 17.2083 15.1269 17.2083C14.5529 17.2083 14.0852 17.676 14.0852 18.25V30.9906C14.0852 31.249 14.1811 31.4969 14.354 31.6896L19.1446 37H16.3394L12.8071 33.0844C12.2873 32.5062 12.0029 31.7635 12.0029 30.9906V18.25C12.0029 16.5271 13.405 15.125 15.1279 15.125C16.8508 15.125 18.2529 16.5271 18.2529 18.25V23.6365C19.2925 23.2719 20.4956 23.4688 21.3738 24.2552L24.5029 27.1344L27.6227 24.2635C28.5081 23.4708 29.7123 23.2719 30.7529 23.6365V18.25C30.7529 16.5271 32.155 15.125 33.8779 15.125C35.6008 15.125 37.0029 16.5271 37.0029 18.25H36.9998ZM19.2717 15.2917C19.2717 13.476 20.6738 12 22.3967 12C23.2113 12 23.9352 12.2812 24.48 12.7573C25.0248 12.2812 25.7488 12 26.5633 12C28.2863 12 29.6883 13.476 29.6883 15.2917C29.6883 18.0531 25.8446 20.8625 25.0738 21.3969L24.48 21.8094L23.8863 21.3969C23.1154 20.8615 19.2717 18.0531 19.2717 15.2917ZM21.355 15.2917C21.355 16.3875 23.0258 18.1146 24.48 19.2469C25.9331 18.1125 27.605 16.3823 27.605 15.2917C27.605 14.625 27.1373 14.0833 26.5633 14.0833C26.0446 14.0833 25.5217 14.4052 25.5217 15.125H23.4383C23.4383 14.4052 22.9154 14.0833 22.3967 14.0833C21.8227 14.0833 21.355 14.626 21.355 15.2917Z" fill="#E87132"/>
</g>
<defs>
<clipPath id="clip0_50_5808">
<rect width="25" height="25" fill="white" transform="translate(12 12)"/>
</clipPath>
</defs>
</svg>
