<svg width="50" height="50" viewBox="0 0 50 50" fill="none" xmlns="http://www.w3.org/2000/svg">
<circle cx="25" cy="25" r="25" fill="#FFF2EB"/>
<g clip-path="url(#clip0_50_5776)">
<path d="M36.9587 23.4583H34.8753V21.375C34.8753 21.0987 34.7656 20.8338 34.5702 20.6384C34.3749 20.4431 34.1099 20.3333 33.8337 20.3333C33.5574 20.3333 33.2924 20.4431 33.0971 20.6384C32.9017 20.8338 32.792 21.0987 32.792 21.375V23.4583H30.7087C30.4324 23.4583 30.1674 23.5681 29.9721 23.7634C29.7767 23.9588 29.667 24.2237 29.667 24.5C29.667 24.7763 29.7767 25.0412 29.9721 25.2366C30.1674 25.4319 30.4324 25.5417 30.7087 25.5417H32.792V27.625C32.792 27.9013 32.9017 28.1662 33.0971 28.3616C33.2924 28.5569 33.5574 28.6667 33.8337 28.6667C34.1099 28.6667 34.3749 28.5569 34.5702 28.3616C34.7656 28.1662 34.8753 27.9013 34.8753 27.625V25.5417H36.9587C37.2349 25.5417 37.4999 25.4319 37.6952 25.2366C37.8906 25.0412 38.0003 24.7763 38.0003 24.5C38.0003 24.2237 37.8906 23.9588 37.6952 23.7634C37.4999 23.5681 37.2349 23.4583 36.9587 23.4583Z" fill="#E87132"/>
<path d="M22.375 24.5C23.6111 24.5 24.8195 24.1334 25.8473 23.4467C26.8751 22.7599 27.6762 21.7838 28.1492 20.6418C28.6223 19.4997 28.7461 18.2431 28.5049 17.0307C28.2637 15.8183 27.6685 14.7047 26.7944 13.8306C25.9203 12.9565 24.8067 12.3613 23.5943 12.1201C22.3819 11.8789 21.1253 12.0027 19.9832 12.4758C18.8412 12.9488 17.8651 13.7499 17.1783 14.7777C16.4916 15.8055 16.125 17.0139 16.125 18.25C16.1267 19.9071 16.7857 21.4958 17.9574 22.6676C19.1292 23.8393 20.7179 24.4983 22.375 24.5ZM22.375 14.0833C23.1991 14.0833 24.0047 14.3277 24.6899 14.7855C25.3751 15.2434 25.9091 15.8941 26.2245 16.6555C26.5399 17.4168 26.6224 18.2546 26.4616 19.0629C26.3008 19.8711 25.904 20.6136 25.3213 21.1963C24.7386 21.779 23.9961 22.1758 23.1879 22.3366C22.3796 22.4974 21.5418 22.4149 20.7805 22.0995C20.0191 21.7841 19.3684 21.2501 18.9105 20.5649C18.4527 19.8797 18.2083 19.0741 18.2083 18.25C18.2083 17.1449 18.6473 16.0851 19.4287 15.3037C20.2101 14.5223 21.2699 14.0833 22.375 14.0833Z" fill="#E87132"/>
<path d="M22.375 26.5833C19.8894 26.5861 17.5065 27.5747 15.7489 29.3322C13.9914 31.0898 13.0028 33.4728 13 35.9583C13 36.2346 13.1097 36.4995 13.3051 36.6949C13.5004 36.8903 13.7654 37 14.0417 37C14.3179 37 14.5829 36.8903 14.7782 36.6949C14.9736 36.4995 15.0833 36.2346 15.0833 35.9583C15.0833 34.0245 15.8516 32.1698 17.219 30.8023C18.5865 29.4349 20.4411 28.6667 22.375 28.6667C24.3089 28.6667 26.1635 29.4349 27.531 30.8023C28.8984 32.1698 29.6667 34.0245 29.6667 35.9583C29.6667 36.2346 29.7764 36.4995 29.9718 36.6949C30.1671 36.8903 30.4321 37 30.7083 37C30.9846 37 31.2496 36.8903 31.4449 36.6949C31.6403 36.4995 31.75 36.2346 31.75 35.9583C31.7472 33.4728 30.7586 31.0898 29.0011 29.3322C27.2435 27.5747 24.8606 26.5861 22.375 26.5833Z" fill="#E87132"/>
</g>
<defs>
<clipPath id="clip0_50_5776">
<rect width="25" height="25" fill="white" transform="translate(13 12)"/>
</clipPath>
</defs>
</svg>
