<svg width="50" height="50" viewBox="0 0 50 50" fill="none" xmlns="http://www.w3.org/2000/svg">
<circle cx="25" cy="25" r="25" fill="#FFF2EB"/>
<g clip-path="url(#clip0_50_5804)">
<path d="M28.625 28.6667H15.0833V17.2083C15.0833 15.4854 16.4854 14.0833 18.2083 14.0833H25.5C26.075 14.0833 26.5417 13.6177 26.5417 13.0417C26.5417 12.4656 26.075 12 25.5 12H18.2083C15.3365 12 13 14.3365 13 17.2083V31.7917C13 34.6635 15.3365 37 18.2083 37H24.4583C27.3302 37 29.6667 34.6635 29.6667 31.7917V29.7083C29.6667 29.1323 29.2 28.6667 28.625 28.6667ZM27.5833 31.7917C27.5833 33.5146 26.1812 34.9167 24.4583 34.9167H18.2083C16.4854 34.9167 15.0833 33.5146 15.0833 31.7917V30.75H27.5833V31.7917ZM19.7708 32.8333C19.7708 32.2573 20.2375 31.7917 20.8125 31.7917H21.8542C22.4292 31.7917 22.8958 32.2573 22.8958 32.8333C22.8958 33.4094 22.4292 33.875 21.8542 33.875H20.8125C20.2375 33.875 19.7708 33.4094 19.7708 32.8333ZM35.9167 16.1667H23.4167C22.2656 16.1667 21.3333 17.099 21.3333 18.25V24.5C21.3333 25.651 22.2656 26.5833 23.4167 26.5833H35.9167C37.0677 26.5833 38 25.651 38 24.5V18.25C38 17.099 37.0677 16.1667 35.9167 16.1667ZM23.9375 25.5417C23.075 25.5417 22.375 24.8417 22.375 23.9792C22.375 23.1167 23.075 22.4167 23.9375 22.4167C24.8 22.4167 25.5 23.1167 25.5 23.9792C25.5 24.8417 24.8 25.5417 23.9375 25.5417ZM23.9375 20.3333C23.075 20.3333 22.375 19.6333 22.375 18.7708C22.375 17.9083 23.075 17.2083 23.9375 17.2083C24.8 17.2083 25.5 17.9083 25.5 18.7708C25.5 19.6333 24.8 20.3333 23.9375 20.3333ZM29.6667 24.5C27.9406 24.5 26.5417 23.101 26.5417 21.375C26.5417 19.649 27.9406 18.25 29.6667 18.25C31.3927 18.25 32.7917 19.649 32.7917 21.375C32.7917 23.101 31.3927 24.5 29.6667 24.5ZM35.3958 25.5417C34.5333 25.5417 33.8333 24.8417 33.8333 23.9792C33.8333 23.1167 34.5333 22.4167 35.3958 22.4167C36.2583 22.4167 36.9583 23.1167 36.9583 23.9792C36.9583 24.8417 36.2583 25.5417 35.3958 25.5417ZM35.3958 20.3333C34.5333 20.3333 33.8333 19.6333 33.8333 18.7708C33.8333 17.9083 34.5333 17.2083 35.3958 17.2083C36.2583 17.2083 36.9583 17.9083 36.9583 18.7708C36.9583 19.6333 36.2583 20.3333 35.3958 20.3333Z" fill="#E87132"/>
</g>
<defs>
<clipPath id="clip0_50_5804">
<rect width="25" height="25" fill="white" transform="translate(13 12)"/>
</clipPath>
</defs>
</svg>
